<svg width="17" height="15" viewBox="0 0 17 15" fill="none" xmlns="http://www.w3.org/2000/svg">
<g clip-path="url(#clip0_1202_8152)">
<path d="M14.6693 14.4123C15.5365 15.0627 16.8374 14.6291 15.6449 13.4366C12.0676 9.96771 12.8264 0.428223 8.38188 0.428223C3.93734 0.428223 4.69616 9.96771 1.11885 13.4366C-0.18199 14.7375 1.22725 15.0627 2.09448 14.4123C5.45499 12.1358 5.23818 8.12487 8.38188 8.12487C11.5256 8.12487 11.3088 12.1358 14.6693 14.4123Z" fill="#3186FF"/>
<mask id="mask0_1202_8152" style="mask-type:alpha" maskUnits="userSpaceOnUse" x="0" y="0" width="17" height="15">
<path d="M14.6693 14.4123C15.5365 15.0627 16.8374 14.6291 15.6449 13.4366C12.0676 9.96771 12.8264 0.428223 8.38188 0.428223C3.93734 0.428223 4.69616 9.96771 1.11885 13.4366C-0.18199 14.7375 1.22725 15.0627 2.09448 14.4123C5.45499 12.1358 5.23818 8.12487 8.38188 8.12487C11.5256 8.12487 11.3088 12.1358 14.6693 14.4123Z" fill="black"/>
</mask>
<g mask="url(#mask0_1202_8152)">
<g filter="url(#filter0_f_1202_8152)">
<path d="M-0.0673543 -2.80238C-0.331127 -0.478558 1.67141 1.65684 4.40544 1.96716C7.13946 2.27749 9.56966 0.645232 9.83343 -1.67859C10.0972 -4.0024 8.09467 -6.1378 5.36064 -6.44813C2.62661 -6.75845 0.196418 -5.12619 -0.0673543 -2.80238Z" fill="#FFE432"/>
</g>
<g filter="url(#filter1_f_1202_8152)">
<path d="M10.474 4.79513C11.159 7.74439 14.1577 9.56773 17.1718 8.86767C20.1859 8.16762 22.074 5.20927 21.389 2.26002C20.704 -0.689236 17.7053 -2.51257 14.6912 -1.81252C11.6771 -1.11247 9.78901 1.84588 10.474 4.79513Z" fill="#FC413D"/>
</g>
<g filter="url(#filter2_f_1202_8152)">
<path d="M-7.46124 6.77334C-6.59569 9.81706 -2.69757 11.3755 1.24545 10.2542C5.18847 9.13292 7.68325 5.75652 6.8177 2.7128C5.95216 -0.330919 2.05404 -1.88936 -1.88898 -0.76807C-5.83201 0.353218 -8.32679 3.72962 -7.46124 6.77334Z" fill="#00B95C"/>
</g>
<g filter="url(#filter3_f_1202_8152)">
<path d="M-7.46124 6.77334C-6.59569 9.81706 -2.69757 11.3755 1.24545 10.2542C5.18847 9.13292 7.68325 5.75652 6.8177 2.7128C5.95216 -0.330919 2.05404 -1.88936 -1.88898 -0.76807C-5.83201 0.353218 -8.32679 3.72962 -7.46124 6.77334Z" fill="#00B95C"/>
</g>
<g filter="url(#filter4_f_1202_8152)">
<path d="M-4.33234 9.29666C-2.16253 11.5129 1.57437 11.373 4.01425 8.98427C6.45413 6.5955 6.67307 2.8624 4.50326 0.646162C2.33344 -1.57008 -1.40345 -1.43022 -3.84334 0.958548C-6.28322 3.34732 -6.50216 7.08041 -4.33234 9.29666Z" fill="#00B95C"/>
</g>
<g filter="url(#filter5_f_1202_8152)">
<path d="M7.01974 17.655C7.69352 20.556 10.5043 22.3817 13.2979 21.7329C16.0914 21.084 17.8098 18.2064 17.136 15.3054C16.4622 12.4044 13.6514 10.5787 10.8579 11.2275C8.06436 11.8764 6.34596 14.754 7.01974 17.655Z" fill="#3186FF"/>
</g>
<g filter="url(#filter6_f_1202_8152)">
<path d="M2.25651 -5.51619C0.845644 -2.37334 2.38923 1.38081 5.7042 2.86893C9.01917 4.35705 12.8502 3.01562 14.2611 -0.127231C15.6719 -3.27008 14.1284 -7.02423 10.8134 -8.51235C7.49842 -10.0005 3.66737 -8.65905 2.25651 -5.51619Z" fill="#FBBC04"/>
</g>
<g filter="url(#filter7_f_1202_8152)">
<path d="M-1.52261 24.8191C-4.93817 23.4783 0.898941 12.4465 2.35042 8.74909C3.80191 5.05175 7.74744 3.14143 11.163 4.48228C14.5786 5.82313 18.627 13.2084 17.1755 16.9057C15.724 20.603 1.89297 26.1599 -1.52261 24.8191Z" fill="#3186FF"/>
</g>
<g filter="url(#filter8_f_1202_8152)">
<path d="M19.1728 11.0885C18.2583 12.1557 15.8721 11.6115 13.8429 9.87288C11.8137 8.13427 10.9099 5.85968 11.8243 4.79242C12.7388 3.72517 15.125 4.2694 17.1543 6.00799C19.1834 7.7466 20.0873 10.0212 19.1728 11.0885Z" fill="#749BFF"/>
</g>
<g filter="url(#filter9_f_1202_8152)">
<path d="M12.3469 5.65586C16.1079 8.19996 20.4388 8.36709 22.0203 6.02916C23.6017 3.69124 21.8349 -0.266417 18.074 -2.81051C14.313 -5.3546 9.98211 -5.52173 8.40063 -3.18381C6.81915 -0.845881 8.58596 3.11177 12.3469 5.65586Z" fill="#FC413D"/>
</g>
<g filter="url(#filter10_f_1202_8152)">
<path d="M-0.00071819 1.51816C-0.932469 3.76583 -0.628159 6.02719 0.678976 6.56905C1.98611 7.11091 3.80109 5.72808 4.73284 3.48041C5.66459 1.23274 5.36028 -1.02862 4.05314 -1.57048C2.74601 -2.11234 0.931032 -0.729512 -0.00071819 1.51816Z" fill="#FFEE48"/>
</g>
</g>
</g>
<defs>
<filter id="filter0_f_1202_8152" x="-1.53649" y="-7.93176" width="12.8391" height="11.3826" filterUnits="userSpaceOnUse" color-interpolation-filters="sRGB">
<feFlood flood-opacity="0" result="BackgroundImageFix"/>
<feBlend mode="normal" in="SourceGraphic" in2="BackgroundImageFix" result="shape"/>
<feGaussianBlur stdDeviation="0.722959" result="effect1_foregroundBlur_1202_8152"/>
</filter>
<filter id="filter1_f_1202_8152" x="3.34323" y="-8.95218" width="25.1763" height="24.9595" filterUnits="userSpaceOnUse" color-interpolation-filters="sRGB">
<feFlood flood-opacity="0" result="BackgroundImageFix"/>
<feBlend mode="normal" in="SourceGraphic" in2="BackgroundImageFix" result="shape"/>
<feGaussianBlur stdDeviation="3.49513" result="effect1_foregroundBlur_1202_8152"/>
</filter>
<filter id="filter2_f_1202_8152" x="-13.5752" y="-7.07422" width="26.5068" height="23.6343" filterUnits="userSpaceOnUse" color-interpolation-filters="sRGB">
<feFlood flood-opacity="0" result="BackgroundImageFix"/>
<feBlend mode="normal" in="SourceGraphic" in2="BackgroundImageFix" result="shape"/>
<feGaussianBlur stdDeviation="2.97119" result="effect1_foregroundBlur_1202_8152"/>
</filter>
<filter id="filter3_f_1202_8152" x="-13.5752" y="-7.07422" width="26.5068" height="23.6343" filterUnits="userSpaceOnUse" color-interpolation-filters="sRGB">
<feFlood flood-opacity="0" result="BackgroundImageFix"/>
<feBlend mode="normal" in="SourceGraphic" in2="BackgroundImageFix" result="shape"/>
<feGaussianBlur stdDeviation="2.97119" result="effect1_foregroundBlur_1202_8152"/>
</filter>
<filter id="filter4_f_1202_8152" x="-11.769" y="-6.8711" width="23.709" height="23.6851" filterUnits="userSpaceOnUse" color-interpolation-filters="sRGB">
<feFlood flood-opacity="0" result="BackgroundImageFix"/>
<feBlend mode="normal" in="SourceGraphic" in2="BackgroundImageFix" result="shape"/>
<feGaussianBlur stdDeviation="2.97119" result="effect1_foregroundBlur_1202_8152"/>
</filter>
<filter id="filter5_f_1202_8152" x="1.22651" y="5.44966" width="21.7027" height="22.0611" filterUnits="userSpaceOnUse" color-interpolation-filters="sRGB">
<feFlood flood-opacity="0" result="BackgroundImageFix"/>
<feBlend mode="normal" in="SourceGraphic" in2="BackgroundImageFix" result="shape"/>
<feGaussianBlur stdDeviation="2.82351" result="effect1_foregroundBlur_1202_8152"/>
</filter>
<filter id="filter6_f_1202_8152" x="-3.38392" y="-14.2374" width="23.2854" height="22.8313" filterUnits="userSpaceOnUse" color-interpolation-filters="sRGB">
<feFlood flood-opacity="0" result="BackgroundImageFix"/>
<feBlend mode="normal" in="SourceGraphic" in2="BackgroundImageFix" result="shape"/>
<feGaussianBlur stdDeviation="2.5589" result="effect1_foregroundBlur_1202_8152"/>
</filter>
<filter id="filter7_f_1202_8152" x="-7.14902" y="-0.516697" width="29.1982" height="30.1105" filterUnits="userSpaceOnUse" color-interpolation-filters="sRGB">
<feFlood flood-opacity="0" result="BackgroundImageFix"/>
<feBlend mode="normal" in="SourceGraphic" in2="BackgroundImageFix" result="shape"/>
<feGaussianBlur stdDeviation="2.2852" result="effect1_foregroundBlur_1202_8152"/>
</filter>
<filter id="filter8_f_1202_8152" x="7.37784" y="0.156401" width="16.2414" height="15.5681" filterUnits="userSpaceOnUse" color-interpolation-filters="sRGB">
<feFlood flood-opacity="0" result="BackgroundImageFix"/>
<feBlend mode="normal" in="SourceGraphic" in2="BackgroundImageFix" result="shape"/>
<feGaussianBlur stdDeviation="2.04485" result="effect1_foregroundBlur_1202_8152"/>
</filter>
<filter id="filter9_f_1202_8152" x="4.36681" y="-8.28773" width="21.6873" height="19.4207" filterUnits="userSpaceOnUse" color-interpolation-filters="sRGB">
<feFlood flood-opacity="0" result="BackgroundImageFix"/>
<feBlend mode="normal" in="SourceGraphic" in2="BackgroundImageFix" result="shape"/>
<feGaussianBlur stdDeviation="1.72712" result="effect1_foregroundBlur_1202_8152"/>
</filter>
<filter id="filter10_f_1202_8152" x="-4.81596" y="-5.96318" width="14.3639" height="16.9249" filterUnits="userSpaceOnUse" color-interpolation-filters="sRGB">
<feFlood flood-opacity="0" result="BackgroundImageFix"/>
<feBlend mode="normal" in="SourceGraphic" in2="BackgroundImageFix" result="shape"/>
<feGaussianBlur stdDeviation="2.1376" result="effect1_foregroundBlur_1202_8152"/>
</filter>
<clipPath id="clip0_1202_8152">
<rect width="17" height="15" fill="white"/>
</clipPath>
</defs>
</svg>

