<svg width="28" height="28" viewBox="0 0 28 28" fill="none" xmlns="http://www.w3.org/2000/svg">
<path d="M24 0H4C1.79086 0 0 1.79086 0 4V24C0 26.2091 1.79086 28 4 28H24C26.2091 28 28 26.2091 28 24V4C28 1.79086 26.2091 0 24 0Z" fill="white"/>
<path d="M10.5723 15.2563C10.5723 17.5023 9.66118 19.3776 8.17793 21.1045H11.6318V22.7784H6.33447V21.1893C7.95545 19.3564 8.58053 17.8626 8.58053 15.2563H10.5723Z" fill="black"/>
<path d="M17.4277 15.2563C17.4277 17.5023 18.3388 19.3776 19.8221 21.1045H16.3682V22.7784H21.6655V21.1893C20.0445 19.3564 19.4195 17.8626 19.4195 15.2563H17.4277Z" fill="black"/>
<path d="M10.5725 12.7433C10.5725 10.4973 9.66142 8.62206 8.17818 6.89514H11.632V5.22119H6.33472V6.81038C7.95569 8.64325 8.58077 10.1371 8.58077 12.7433H10.5725Z" fill="black"/>
<path d="M17.4277 12.7433C17.4277 10.4973 18.3388 8.62205 19.8221 6.89513H16.3682V5.22119H21.6655V6.81037C20.0446 8.64324 19.4195 10.1371 19.4195 12.7433H17.4277Z" fill="black"/>
</svg>

