<svg width="475" height="686" viewBox="0 0 475 686" fill="none" xmlns="http://www.w3.org/2000/svg">
<path fill-rule="evenodd" clip-rule="evenodd" d="M210.667 53.3333H132C88.5536 53.3333 53.3333 88.5536 53.3333 132C53.3333 175.446 88.5536 210.667 132 210.667H210.667V53.3333ZM210.667 0H264H342.667C415.571 0 474.664 59.0981 474.664 132C474.664 175.021 454.088 213.235 422.232 237.333C454.088 261.432 474.664 299.646 474.664 342.667C474.664 415.569 415.571 474.667 342.667 474.667C313.19 474.667 285.97 465.005 264 448.676V474.667V553.334C264 626.235 204.901 685.334 132 685.334C59.0981 685.334 0 626.235 0 553.334C0 510.31 20.5803 472.099 52.4331 448C20.5803 423.901 0 385.687 0 342.667C0 299.646 20.5808 261.432 52.4341 237.334C20.5808 213.235 0 175.021 0 132C0 59.0981 59.0981 0 132 0H210.667ZM264 53.3333V210.667H342.667C386.115 210.667 421.331 175.446 421.331 132C421.331 88.5536 386.115 53.3333 342.667 53.3333H264ZM132 421.333H210.667V342.87V342.667V342.465V264.001H132C88.5536 264.001 53.3333 299.221 53.3333 342.667C53.3333 386.01 88.3851 421.165 131.688 421.333L132 421.333ZM53.3333 553.334C53.3333 509.99 88.3851 474.835 131.688 474.667L132 474.667H210.667V553.334C210.667 596.779 175.446 632.001 132 632.001C88.5536 632.001 53.3333 596.779 53.3333 553.334ZM264 342.51C264.085 299.136 299.273 264.001 342.667 264.001C386.115 264.001 421.331 299.221 421.331 342.667C421.331 386.114 386.115 421.334 342.667 421.334C299.273 421.334 264.085 386.198 264 342.824V342.51Z" fill="white"/>
</svg>

