<svg width="27" height="32" viewBox="0 0 27 32" fill="none" xmlns="http://www.w3.org/2000/svg">
<path d="M20.3979 32C19.146 32 17.9176 31.6249 16.8814 30.9333C15.8452 31.6249 14.6145 32 13.3649 32C12.1154 32 10.8846 31.6249 9.8485 30.9333C8.81934 31.6249 7.62842 31.9906 6.37421 32H6.3367C4.63472 32 3.03824 31.3225 1.8356 30.0941C0.651721 28.8844 0 27.2926 0 25.6117V13.3626C0.00234433 5.99443 5.99677 0 13.3649 0C20.7331 0 26.7276 5.99443 26.7276 13.3626V25.6164C26.7276 29.0086 24.1019 31.8078 20.7496 31.9906C20.6323 31.9977 20.5151 32 20.3979 32Z" fill="#3551F3"/>
<path d="M20.3979 30.5935C19.2797 30.5935 18.1872 30.2091 17.3175 29.5105C17.1674 29.3885 17.0057 29.3651 16.8978 29.3651C16.7267 29.3651 16.5532 29.4261 16.4102 29.5409C15.5475 30.2208 14.4668 30.5959 13.3649 30.5959C12.2631 30.5959 11.1824 30.2208 10.3197 29.5409C10.1813 29.4307 10.0172 29.3745 9.8485 29.3745C9.67971 29.3745 9.51561 29.4331 9.3773 29.5409C8.51224 30.2231 7.47136 30.5865 6.36719 30.5959H6.33437C5.0192 30.5959 3.77905 30.0707 2.84367 29.1143C1.92001 28.1695 1.40894 26.927 1.40894 25.6165V13.3674C1.40894 6.77055 6.77275 1.40674 13.3649 1.40674C19.9572 1.40674 25.321 6.77055 25.321 13.3628V25.6165C25.321 28.2609 23.2791 30.4435 20.6722 30.5865C20.5808 30.5912 20.4893 30.5935 20.3979 30.5935Z" fill="black"/>
<path d="M23.9143 13.3625V25.6163C23.9143 27.4917 22.4678 29.0788 20.5947 29.182C19.6851 29.2312 18.8459 28.9358 18.1965 28.413C17.4182 27.7871 16.3234 27.8152 15.538 28.4341C14.9402 28.9053 14.1854 29.1867 13.3625 29.1867C12.5396 29.1867 11.7871 28.9053 11.1893 28.4341C10.3946 27.8082 9.29982 27.8082 8.5051 28.4341C7.91198 28.9007 7.16649 29.182 6.35535 29.1867C4.40722 29.2007 2.81543 27.5597 2.81543 25.6116V13.3625C2.81543 7.5368 7.53924 2.81299 13.3648 2.81299C19.1905 2.81299 23.9143 7.5368 23.9143 13.3625Z" fill="white"/>
<path d="M11.2832 12.4366L7.35184 10.1673C6.84077 9.87193 6.18436 10.0477 5.88898 10.5588C5.59359 11.0699 5.76942 11.7263 6.28048 12.0217L8.60605 13.365L6.28048 14.7083C5.76942 15.0036 5.59359 15.6577 5.88898 16.1711C6.18436 16.6822 6.83843 16.858 7.35184 16.5626L11.2832 14.2933C11.9959 13.8807 11.9959 12.8516 11.2832 12.4389V12.4366Z" fill="black"/>
<path d="M20.1846 12.2915H15.02C14.4293 12.2915 13.9487 12.7697 13.9487 13.3628C13.9487 13.9559 14.4269 14.4342 15.02 14.4342H20.1846C20.7754 14.4342 21.2559 13.9559 21.2559 13.3628C21.2559 12.7697 20.7777 12.2915 20.1846 12.2915Z" fill="black"/>
</svg>

