<svg width="32" height="32" viewBox="0 0 32 32" fill="none" xmlns="http://www.w3.org/2000/svg">
<mask id="mask0_1204_8243" style="mask-type:alpha" maskUnits="userSpaceOnUse" x="0" y="0" width="32" height="32">
<circle cx="16" cy="16" r="16" fill="#D9D9D9"/>
</mask>
<g mask="url(#mask0_1204_8243)">
<circle cx="16.0627" cy="16.0627" r="16.0627" fill="white"/>
<path fill-rule="evenodd" clip-rule="evenodd" d="M14.471 0.0577898C10.6905 0.473275 7.30661 2.08446 4.68061 4.71926C3.88408 5.51851 3.34551 6.18328 2.65948 7.21411C1.29944 9.25781 0.418544 11.6425 0.107428 14.1232C0.00238494 14.9604 0.00244762 17.3043 0.10749 18.0487C0.51569 20.9418 1.56988 23.5345 3.24761 25.7718C3.78586 26.4896 5.05653 27.8239 5.77115 28.4219L6.25318 28.8252L6.83737 28.7309C9.32661 28.3295 11.5303 27.0074 13.0103 25.0275C13.2657 24.6858 13.5301 24.2972 13.598 24.1639C13.666 24.0305 13.7413 23.9214 13.7655 23.9214C13.9207 23.9214 18.0435 25.3196 18.0435 25.3722C18.0435 25.5321 17.7123 26.723 17.4771 27.4087C17.1582 28.3389 16.5355 29.6507 16.0822 30.3477C15.8943 30.6365 15.512 31.1438 15.2326 31.475L14.7246 32.077L15.1462 32.1223C15.3781 32.1473 16.0215 32.1507 16.576 32.1299C18.2246 32.0679 19.5365 31.8352 21.0518 31.3357C24.4766 30.2069 27.4124 27.9607 29.4289 24.9264C30.7796 22.8938 31.7278 20.2819 31.9609 17.951C32.0005 17.5556 32.0581 17.1673 32.089 17.088C32.1605 16.9044 32.1632 15.0838 32.092 15.0397C32.0627 15.0216 32.0203 14.7672 31.9979 14.4745C31.8195 12.1484 30.8512 9.38305 29.4904 7.31279C26.895 3.36458 22.9501 0.844604 18.2628 0.140761C17.5052 0.0270132 15.2085 -0.0232344 14.471 0.0577898ZM8.72343 6.60681C8.50714 7.64015 7.80845 8.40259 6.81963 8.68417C6.59839 8.74717 6.37502 8.81217 6.32331 8.82857C6.2716 8.84496 6.38442 8.90771 6.57401 8.96794C7.66473 9.31471 8.3351 9.97384 8.67912 11.0378L8.81049 11.4443L8.8469 11.0908C8.95395 10.0513 9.70172 9.28821 10.9212 8.97378C11.1673 8.91035 11.3263 8.84565 11.2746 8.82995C11.2229 8.81425 10.9803 8.74076 10.7355 8.66665C9.89238 8.41133 9.24432 7.76401 8.99356 6.92657C8.93227 6.722 8.8627 6.48873 8.83888 6.40827C8.80347 6.28849 8.78247 6.32461 8.72343 6.60681ZM19.767 7.84346C17.5938 9.49881 16.2898 10.9449 15.7805 12.2644C15.5641 12.8253 15.4167 13.5387 15.4133 14.0422L15.4111 14.3696L14.6684 14.7491C13.4648 15.364 12.6476 15.9398 11.8736 16.7183L11.1877 17.408L13.0017 18.1249C13.9994 18.5192 14.84 18.8657 14.8696 18.895C14.8996 18.9245 14.8204 19.3024 14.6913 19.7455C14.5636 20.1841 14.483 20.5636 14.5121 20.5888C14.5739 20.6422 19.1273 21.9744 19.2474 21.9742C19.2936 21.9741 19.4459 21.6516 19.6031 21.2204C19.7589 20.7934 19.9127 20.4669 19.9582 20.4669C20.0023 20.4669 20.8372 20.6506 21.8135 20.8752C22.7899 21.0997 23.6144 21.2834 23.6458 21.2834C23.722 21.2834 23.6472 20.1563 23.5207 19.3992C23.3214 18.2067 22.7484 16.7958 22.1884 16.1187L21.9428 15.8217L22.0887 15.4592C22.67 14.0147 22.7895 12.5177 22.4306 11.1772C22.1835 10.254 21.2252 8.55164 20.4657 7.68631L20.2684 7.46158L19.767 7.84346ZM18.7621 11.5731C18.4999 11.6876 18.1724 12.0294 18.0354 12.3317C17.7479 12.966 18.045 13.8011 18.6732 14.124C19.2065 14.3982 19.7927 14.3327 20.2401 13.949C20.8416 13.4329 20.9046 12.6218 20.3951 11.9523C20.0843 11.544 19.2647 11.3536 18.7621 11.5731ZM0.018555 16.1017C0.0186177 16.6544 0.0282069 16.8721 0.0398644 16.5855C0.0514592 16.2988 0.0513965 15.8466 0.0396763 15.5805C0.0279562 15.3144 0.0184923 15.5489 0.018555 16.1017Z" fill="url(#paint0_linear_1204_8243)"/>
</g>
<defs>
<linearGradient id="paint0_linear_1204_8243" x1="23.9377" y1="2.98037" x2="11.6083" y2="31.3725" gradientUnits="userSpaceOnUse">
<stop stop-color="#9F0BCB"/>
<stop offset="1" stop-color="#D60B80"/>
</linearGradient>
</defs>
</svg>

